<?xml version="1.0" encoding="UTF-8"?>
<svg version="1.1" xmlns="http://www.w3.org/2000/svg" width="48" height="48">
<path d="M0 0 C5.19091143 3.11454686 9.18086984 7.39835815 11.4453125 13.0546875 C11.81640625 16.55078125 11.81640625 16.55078125 11.8828125 20.4921875 C11.94275391 22.43931641 11.94275391 22.43931641 12.00390625 24.42578125 C11.31192773 28.92122213 10.04307693 30.35250392 6.4453125 33.0546875 C2.69118449 33.97603027 -0.91062688 33.26937437 -4.5546875 32.0546875 C-5.5446875 32.5496875 -5.5446875 32.5496875 -6.5546875 33.0546875 C-4.5746875 33.7146875 -2.5946875 34.3746875 -0.5546875 35.0546875 C-0.4296875 37.9296875 -0.4296875 37.9296875 -0.5546875 41.0546875 C-3.36121181 43.86121181 -5.26051945 43.42085361 -9.1796875 43.4921875 C-15.65429752 43.399314 -19.77946368 42.46815194 -24.5546875 38.0546875 C-30.64231797 31.48645463 -31.16063257 25.62260135 -30.9375 16.9921875 C-30.29143743 10.34697247 -27.74711587 7.08669428 -22.9921875 2.6796875 C-16.15517964 -1.87831774 -7.88185497 -2.91652737 0 0 Z M-14.5546875 8.0546875 C-14.5546875 8.3846875 -14.5546875 8.7146875 -14.5546875 9.0546875 C-11.2546875 9.0546875 -7.9546875 9.0546875 -4.5546875 9.0546875 C-4.5546875 8.7246875 -4.5546875 8.3946875 -4.5546875 8.0546875 C-7.8546875 8.0546875 -11.1546875 8.0546875 -14.5546875 8.0546875 Z M-18.5546875 10.0546875 C-22.37860797 14.45798986 -23.90874075 17.00949026 -23.84375 22.9453125 C-23.37349163 26.3769276 -21.79305691 28.49655103 -19.5546875 31.0546875 C-18.5646875 31.0546875 -17.5746875 31.0546875 -16.5546875 31.0546875 C-17.04195312 30.51714844 -17.52921875 29.97960937 -18.03125 29.42578125 C-19.93576865 26.46156888 -19.95616895 24.61715214 -19.9296875 21.1171875 C-19.93742187 20.09753906 -19.94515625 19.07789063 -19.953125 18.02734375 C-19.50789992 14.70561545 -18.45382866 12.78281885 -16.5546875 10.0546875 C-17.2146875 10.0546875 -17.8746875 10.0546875 -18.5546875 10.0546875 Z M-0.5546875 11.0546875 C-0.58165115 12.84627239 -0.60106667 14.63797223 -0.6171875 16.4296875 C-0.62878906 17.42742188 -0.64039062 18.42515625 -0.65234375 19.453125 C-0.73475352 22.03901203 -0.73475352 22.03901203 0.4453125 24.0546875 C1.7653125 24.0546875 3.0853125 24.0546875 4.4453125 24.0546875 C4.90075038 18.36171405 4.03296127 15.51206931 0.4453125 11.0546875 C0.1153125 11.0546875 -0.2146875 11.0546875 -0.5546875 11.0546875 Z M-12.5546875 18.0546875 C-12.8846875 19.7046875 -13.2146875 21.3546875 -13.5546875 23.0546875 C-11.0796875 23.5496875 -11.0796875 23.5496875 -8.5546875 24.0546875 C-8.2246875 22.4046875 -7.8946875 20.7546875 -7.5546875 19.0546875 C-9.2046875 18.7246875 -10.8546875 18.3946875 -12.5546875 18.0546875 Z " fill="#070707" transform="translate(33.5546875,3.9453125)"/>
<path d="M0 0 C5.04663371 2.82611488 8.97669864 6.93009592 10.8125 12.4375 C11.28168572 17.04474993 11.67322237 21.04710233 9.1875 25.0625 C6.15995776 26.81528761 4.25752033 26.88685048 0.8125 26.4375 C0.1525 25.7775 -0.5075 25.1175 -1.1875 24.4375 C-2.99619466 24.74170546 -2.99619466 24.74170546 -5.1875 25.4375 C-8.625 26.375 -8.625 26.375 -12.1875 26.4375 C-15.91952105 23.26131187 -16.9675575 21.69117222 -17.8125 16.875 C-17.1875 13.4375 -17.1875 13.4375 -15.375 10.5 C-10.58410024 7.40000604 -6.82666424 8.09779131 -1.1875 8.4375 C-0.8575 13.3875 -0.5275 18.3375 -0.1875 23.4375 C2.4525 23.4375 5.0925 23.4375 7.8125 23.4375 C8.18281063 17.38909297 7.92677681 12.8355798 4.8125 7.4375 C1.19073848 3.61782801 -2.11466403 1.59694892 -7.4375 1.1875 C-12.23708441 1.50747229 -16.15260676 2.47078617 -19.703125 5.90234375 C-23.61892229 10.50453079 -24.49253621 13.25324023 -24.3984375 19.125 C-23.94918438 24.05014529 -21.76857495 27.12311783 -18.125 30.25 C-13.99246453 33.32742003 -12.17104764 33.55434625 -7.0625 33.5 C-5.96679688 33.49097656 -4.87109375 33.48195312 -3.7421875 33.47265625 C-2.89914063 33.46105469 -2.05609375 33.44945312 -1.1875 33.4375 C-1.1875 34.0975 -1.1875 34.7575 -1.1875 35.4375 C-5.76562115 36.96354038 -10.52687893 37.36132676 -15.15625 35.75390625 C-20.31439854 33.0277795 -23.62497696 29.19051679 -26.5 24.125 C-27.97703359 18.35114142 -28.14754638 13.43505478 -25.0625 8.1875 C-18.96645488 -0.48897331 -10.16263663 -4.57318648 0 0 Z M-11.1875 15.4375 C-11.5175 17.0875 -11.8475 18.7375 -12.1875 20.4375 C-9.7125 20.9325 -9.7125 20.9325 -7.1875 21.4375 C-6.8575 19.7875 -6.5275 18.1375 -6.1875 16.4375 C-7.8375 16.1075 -9.4875 15.7775 -11.1875 15.4375 Z " fill="#F0F0F0" transform="translate(32.1875,6.5625)"/>
<path d="M0 0 C4.09895964 2.32109763 7.47988669 5.30702268 9.8125 9.4375 C9.6875 12.375 9.6875 12.375 8.8125 14.4375 C8.54050781 13.85226563 8.26851562 13.26703125 7.98828125 12.6640625 C5.69872316 8.32835448 2.616823 4.50158792 -1.625 2 C-7.90112777 0.62231342 -12.56508459 1.31393588 -18.1875 4.4375 C-21.98934322 8.11196187 -24.32883146 11.36274155 -24.4375 16.6875 C-24.35776261 21.66311305 -23.37977873 25.28029773 -19.72265625 28.87890625 C-15.210272 32.75139249 -12.91778532 33.56229027 -7.0625 33.5 C-5.96679688 33.49097656 -4.87109375 33.48195312 -3.7421875 33.47265625 C-2.89914063 33.46105469 -2.05609375 33.44945312 -1.1875 33.4375 C-1.1875 34.0975 -1.1875 34.7575 -1.1875 35.4375 C-5.76562115 36.96354038 -10.52687893 37.36132676 -15.15625 35.75390625 C-20.31439854 33.0277795 -23.62497696 29.19051679 -26.5 24.125 C-27.97703359 18.35114142 -28.14754638 13.43505478 -25.0625 8.1875 C-18.96645488 -0.48897331 -10.16263663 -4.57318648 0 0 Z " fill="#E1E1E1" transform="translate(32.1875,6.5625)"/>
<path d="M0 0 C2.875 0.9375 2.875 0.9375 4.875 3.9375 C5.33943597 7.5755818 5.30343764 9.29484354 3.25 12.375 C0.875 13.9375 0.875 13.9375 -2.25 13.875 C-5.125 12.9375 -5.125 12.9375 -7.125 9.9375 C-7.58943597 6.2994182 -7.55343764 4.58015646 -5.5 1.5 C-3.125 -0.0625 -3.125 -0.0625 0 0 Z M-3.125 4.9375 C-3.455 6.5875 -3.785 8.2375 -4.125 9.9375 C-1.65 10.4325 -1.65 10.4325 0.875 10.9375 C1.205 9.2875 1.535 7.6375 1.875 5.9375 C0.225 5.6075 -1.425 5.2775 -3.125 4.9375 Z " fill="#111111" transform="translate(24.125,17.0625)"/>
<path d="M0 0 C4.09895964 2.32109763 7.47988669 5.30702268 9.8125 9.4375 C9.6875 12.375 9.6875 12.375 8.8125 14.4375 C8.54050781 13.85226563 8.26851562 13.26703125 7.98828125 12.6640625 C5.69872316 8.32835448 2.616823 4.50158792 -1.625 2 C-7.9648912 0.60831656 -12.45043438 1.46272524 -18.1875 4.4375 C-21.03350677 6.49537515 -21.03350677 6.49537515 -23.1875 8.4375 C-23.1875 5.4375 -23.1875 5.4375 -21.76171875 3.8671875 C-21.13910156 3.35414062 -20.51648438 2.84109375 -19.875 2.3125 C-19.26011719 1.79429688 -18.64523438 1.27609375 -18.01171875 0.7421875 C-12.7989569 -2.98599763 -5.64488324 -2.54019746 0 0 Z " fill="#DEDEDE" transform="translate(32.1875,6.5625)"/>
<path d="M0 0 C0.88751953 0.19529297 0.88751953 0.19529297 1.79296875 0.39453125 C-0.75487923 1.76517398 -2.47944271 2.43726246 -5.39453125 2.89453125 C-6.78671875 3.14203125 -6.78671875 3.14203125 -8.20703125 3.39453125 C-9.60638138 6.19323152 -9.4596853 8.29951917 -9.20703125 11.39453125 C-7.54429789 13.93238742 -6.47348114 14.32636965 -3.51953125 15.08203125 C-2.37484375 15.23671875 -2.37484375 15.23671875 -1.20703125 15.39453125 C-1.53703125 16.05453125 -1.86703125 16.71453125 -2.20703125 17.39453125 C-4.39453125 17.76953125 -4.39453125 17.76953125 -7.20703125 17.39453125 C-10.76425372 14.15350633 -11.99845615 12.58340931 -12.83203125 7.83203125 C-12.20703125 4.39453125 -12.20703125 4.39453125 -10.26953125 1.39453125 C-6.4063517 -1.12836152 -4.40541819 -0.76897185 0 0 Z " fill="#E8E8E8" transform="translate(27.20703125,15.60546875)"/>
<path d="M0 0 C0.99 0.33 1.98 0.66 3 1 C2.2575 1.70125 1.515 2.4025 0.75 3.125 C-1.97817223 5.97718006 -3.91302954 8.6763063 -6 12 C-6.66 10.68 -7.32 9.36 -8 8 C-7.04578192 6.85073734 -6.08647955 5.70569459 -5.125 4.5625 C-4.59132813 3.92441406 -4.05765625 3.28632813 -3.5078125 2.62890625 C-2 1 -2 1 0 0 Z " fill="#0F0F0F" transform="translate(13,5)"/>
<path d="M0 0 C0.66 0.33 1.32 0.66 2 1 C2.10824843 2.6026782 2.18570645 4.20745748 2.25 5.8125 C2.29640625 6.70582031 2.3428125 7.59914063 2.390625 8.51953125 C2 11 2 11 -0.015625 12.82421875 C-0.67046875 13.21222656 -1.3253125 13.60023437 -2 14 C-2.33 13.34 -2.66 12.68 -3 12 C-2.34 12 -1.68 12 -1 12 C-0.67 8.04 -0.34 4.08 0 0 Z " fill="#E6E6E6" transform="translate(41,18)"/>
<path d="M0 0 C3.79951706 1.49266742 5.8354862 3.55281135 8 7 C7.75 9.8125 7.75 9.8125 7 12 C6.773125 11.46375 6.54625 10.9275 6.3125 10.375 C5.13801851 8.24974779 3.95184753 6.69753199 2.375 4.875 C0 2 0 2 0 0 Z " fill="#D5D5D5" transform="translate(34,9)"/>
<path d="M0 0 C2.97 0.33 5.94 0.66 9 1 C5.23312136 2.88343932 3.97041037 3.22057835 0 3 C0 2.01 0 1.02 0 0 Z " fill="#D2D2D2" transform="translate(20,15)"/>
</svg>
